<?xml version="1.0"?>
<svg xmlns="http://www.w3.org/2000/svg" xmlns:xlink="http://www.w3.org/1999/xlink" xmlns:svgjs="http://svgjs.com/svgjs" version="1.1" width="512" height="512" x="0" y="0" viewBox="0 0 512 512" style="enable-background:new 0 0 512 512" xml:space="preserve" class=""><g transform="matrix(1,0,0,1,0,0)">
<g xmlns="http://www.w3.org/2000/svg">
	<g>
		<g>
			<path d="M256,341.333c35.292,0,64-28.708,64-64c0-35.292-28.708-64-64-64s-64,28.708-64,64     C192,312.625,220.708,341.333,256,341.333z M256,234.667c23.531,0,42.667,19.135,42.667,42.667S279.531,320,256,320     s-42.667-19.135-42.667-42.667S232.469,234.667,256,234.667z" fill="#bcbd8b" data-original="#000000" style="" class=""/>
			<path d="M245.333,288c5.896,0,10.667-4.771,10.667-10.667c5.896,0,10.667-4.771,10.667-10.667     c0-5.896-4.771-10.667-10.667-10.667c-11.76,0-21.333,9.573-21.333,21.333C234.667,283.229,239.438,288,245.333,288z" fill="#bcbd8b" data-original="#000000" style="" class=""/>
			<path d="M501.333,64H10.667C4.771,64,0,68.771,0,74.667v74.667C0,172.865,19.135,192,42.667,192v42.667     C42.667,352.302,138.365,448,256,448s213.333-95.698,213.333-213.333V192C492.865,192,512,172.865,512,149.333V74.667     C512,68.771,507.229,64,501.333,64z M448,234.667c0,105.865-86.135,192-192,192s-192-86.135-192-192V192h128.66     c-26.138,19.461-43.327,50.319-43.327,85.333C149.333,336.146,197.188,384,256,384s106.667-47.854,106.667-106.667     c0-35.014-17.189-65.872-43.327-85.333H448V234.667z M256,192c47.052,0,85.333,38.281,85.333,85.333     c0,47.052-38.281,85.333-85.333,85.333s-85.333-38.281-85.333-85.333C170.667,230.281,208.948,192,256,192z M490.667,149.333     c0,11.76-9.573,21.333-21.333,21.333H42.667c-11.76,0-21.333-9.573-21.333-21.333v-64h469.333V149.333z" fill="#bcbd8b" data-original="#000000" style="" class=""/>
			<circle cx="394.667" cy="224" r="10.667" fill="#bcbd8b" data-original="#000000" style="" class=""/>
		</g>
	</g>
</g>
<g xmlns="http://www.w3.org/2000/svg">
</g>
<g xmlns="http://www.w3.org/2000/svg">
</g>
<g xmlns="http://www.w3.org/2000/svg">
</g>
<g xmlns="http://www.w3.org/2000/svg">
</g>
<g xmlns="http://www.w3.org/2000/svg">
</g>
<g xmlns="http://www.w3.org/2000/svg">
</g>
<g xmlns="http://www.w3.org/2000/svg">
</g>
<g xmlns="http://www.w3.org/2000/svg">
</g>
<g xmlns="http://www.w3.org/2000/svg">
</g>
<g xmlns="http://www.w3.org/2000/svg">
</g>
<g xmlns="http://www.w3.org/2000/svg">
</g>
<g xmlns="http://www.w3.org/2000/svg">
</g>
<g xmlns="http://www.w3.org/2000/svg">
</g>
<g xmlns="http://www.w3.org/2000/svg">
</g>
<g xmlns="http://www.w3.org/2000/svg">
</g>
</g></svg>
