<?xml version="1.0"?>
<svg xmlns="http://www.w3.org/2000/svg" xmlns:xlink="http://www.w3.org/1999/xlink" xmlns:svgjs="http://svgjs.com/svgjs" version="1.1" width="512" height="512" x="0" y="0" viewBox="0 0 64 64" style="enable-background:new 0 0 512 512" xml:space="preserve" class=""><g><g xmlns="http://www.w3.org/2000/svg" id="Emergency-light"><path d="m51.98 50.8a1 1 0 0 0 -.98-.8h-1v-16a18 18 0 0 0 -36 0v16h-1a1 1 0 0 0 -.98.8l-2 10a.99.99 0 0 0 .21.83.971.971 0 0 0 .77.37h42a.971.971 0 0 0 .77-.37.99.99 0 0 0 .21-.83zm-35.98-16.8a16 16 0 0 1 32 0v16h-15v-15h1.1a5 5 0 1 0 0-2h-1.1v-3h-2v3h-1.1a5 5 0 1 0 0 2h1.1v15h-11v-3h-2v3h-2zm20 0a3 3 0 1 1 3 3 3.009 3.009 0 0 1 -3-3zm-8 0a3 3 0 1 1 -3-3 3.009 3.009 0 0 1 3 3zm-15.78 26 1.6-8h36.36l1.6 8z" fill="#bcbd8b" data-original="#000000" style="" class=""/><path d="m18 43h2v2h-2z" fill="#bcbd8b" data-original="#000000" style="" class=""/><path d="m31 2h2v6h-2z" fill="#bcbd8b" data-original="#000000" style="" class=""/><path d="m10.494 10.494h2v6h-2z" transform="matrix(.707 -.707 .707 .707 -6.175 12.079)" fill="#bcbd8b" data-original="#000000" style="" class=""/><path d="m2 33h6v2h-6z" fill="#bcbd8b" data-original="#000000" style="" class=""/><path d="m56 33h6v2h-6z" fill="#bcbd8b" data-original="#000000" style="" class=""/><path d="m49.506 12.494h6v2h-6z" transform="matrix(.707 -.707 .707 .707 5.837 41.08)" fill="#bcbd8b" data-original="#000000" style="" class=""/></g></g></svg>
