<?xml version="1.0"?>
<svg xmlns="http://www.w3.org/2000/svg" xmlns:xlink="http://www.w3.org/1999/xlink" xmlns:svgjs="http://svgjs.com/svgjs" version="1.1" width="512" height="512" x="0" y="0" viewBox="0 0 512 512" style="enable-background:new 0 0 512 512" xml:space="preserve" class=""><g><path xmlns="http://www.w3.org/2000/svg" d="M224.542,284.276A707.39,707.39,0,0,0,80.075,305.85a6,6,0,1,0,2.99,11.621,695.345,695.345,0,0,1,142.013-21.207,6,6,0,0,0-.536-11.988Z" fill="#bcbd8b" data-original="#000000" style="" class=""/><path xmlns="http://www.w3.org/2000/svg" d="M60.754,311.113c-3.058.878-6.284,1.832-9.588,2.836a6,6,0,1,0,3.488,11.482c3.246-.986,6.412-1.923,9.412-2.784a6,6,0,1,0-3.312-11.534Z" fill="#bcbd8b" data-original="#000000" style="" class=""/><path xmlns="http://www.w3.org/2000/svg" d="M377,322H251a6,6,0,0,0-6,6v24a6,6,0,0,0,6,6H377a6,6,0,0,0,6-6V328A6,6,0,0,0,377,322Zm-6,24H257V334H371Z" fill="#bcbd8b" data-original="#000000" style="" class=""/><path xmlns="http://www.w3.org/2000/svg" d="M145.9,322.95a16.89,16.89,0,1,0,16.89,16.89A16.909,16.909,0,0,0,145.9,322.95Zm0,21.78a4.89,4.89,0,1,1,4.89-4.89A4.9,4.9,0,0,1,145.9,344.73Z" fill="#bcbd8b" data-original="#000000" style="" class=""/><path xmlns="http://www.w3.org/2000/svg" d="M192.89,322.95a16.89,16.89,0,1,0,16.88,16.89A16.909,16.909,0,0,0,192.89,322.95Zm0,21.78a4.89,4.89,0,1,1,4.88-4.89A4.9,4.9,0,0,1,192.89,344.73Z" fill="#bcbd8b" data-original="#000000" style="" class=""/><path xmlns="http://www.w3.org/2000/svg" d="M487.5,297.14,465.35,290.3l-.152-.031c-.4-.123-.8-.241-1.2-.364V249.04c0-8.822-7.588-16.04-16.41-16.04H435.759L354.62,90.877A20.531,20.531,0,0,0,363.2,74.24a20,20,0,1,0-20.3,20.3L421.947,233H417.19A16.216,16.216,0,0,0,401,249.04v24.6a705.113,705.113,0,0,0-290,0V249.04A16.216,16.216,0,0,0,94.81,233H89.937L167,94.818c.6.053,1.195.1,1.8.1a20.627,20.627,0,1,0-12.98-4.7L76.2,233H64.41C55.588,233,48,240.218,48,249.04v40.876c-.382.117-.764.231-1.146.349L24.5,297.14A26.069,26.069,0,0,0,6,321.97V363.5A26.815,26.815,0,0,0,32.41,390H48v16.43C48,419,58.638,429,71.21,429H78v23.43A5.487,5.487,0,0,0,83.81,458H151c3.313,0,6-2.256,6-5.57V429H355v23.43c0,3.314,2.687,5.57,6,5.57h67.19a5.487,5.487,0,0,0,5.81-5.57V429h6.79c12.572,0,23.21-10,23.21-22.57V390h15.59A26.815,26.815,0,0,0,506,363.5V321.97A26.068,26.068,0,0,0,487.5,297.14ZM344.872,82.4a7.583,7.583,0,0,1-1.672.181,8.337,8.337,0,1,1,8-8.33A8.308,8.308,0,0,1,344.872,82.4ZM168.8,65.57a8.682,8.682,0,1,1-8.5,8.68A8.6,8.6,0,0,1,168.8,65.57ZM413,249.04a4.205,4.205,0,0,1,4.19-4.04h30.4a4.41,4.41,0,0,1,4.41,4.04v37.284c-12.889-3.726-25.963-7.1-39-10.061Zm-353,0A4.41,4.41,0,0,1,64.41,245h30.4A4.205,4.205,0,0,1,99,249.04v27.227c-13.043,2.967-26.116,6.339-39,10.064ZM78,417H71.21C65.255,417,60,412.385,60,406.43V390H78Zm102,0H157V390h23Zm35,0H192V390h23Zm35,0H227V390h23Zm35,0H262V390h23Zm35,0H297V390h23Zm35,0H332V390h23Zm67,29H367V390h55Zm30-39.57c0,5.955-5.255,10.57-11.21,10.57H434V390h18Zm42-42.93A14.806,14.806,0,0,1,479.59,378H128.129a6,6,0,1,0,0,12H145v56H90V390h8.086a6,6,0,1,0,0-12H32.41A14.806,14.806,0,0,1,18,363.5V321.97A14.123,14.123,0,0,1,28.053,308.6l22.233-6.869c1.959-.6,3.97-1.208,5.941-1.8,16.418-4.94,33.233-9.31,49.933-12.988a693.684,693.684,0,0,1,299.653,0c16.695,3.677,33.488,8.047,49.917,12.99,1.96.585,3.921,1.189,5.88,1.793l22.335,6.868A14.124,14.124,0,0,1,494,321.97Z" fill="#bcbd8b" data-original="#000000" style="" class=""/></g></svg>
