<?xml version="1.0"?>
<svg xmlns="http://www.w3.org/2000/svg" xmlns:xlink="http://www.w3.org/1999/xlink" xmlns:svgjs="http://svgjs.com/svgjs" version="1.1" width="512" height="512" x="0" y="0" viewBox="0 0 512 512" style="enable-background:new 0 0 512 512" xml:space="preserve" class=""><g>
<g xmlns="http://www.w3.org/2000/svg">
	<g>
		<path d="M487.5,496.5V360h-15v112.5h-17v-32h-79v32h-17v-81h24v-46.999V344.5h-6l-18-0.003V87.5h53.127l59.873,67.513V344h15    V149.319L419.373,72.5H407.5V48h-15v24.5h-33v-72h-207v31.497h15V15.5h177v329h-177V47.997h-15V72.5h-33V48h-15v24.5H92.627    L24.5,149.319V496.5H0v15h512v-15H487.5z M391.5,455.5h49v17h-49V455.5z M368.5,359.5v17h-225v-17H368.5z M152.5,496.5h-113v-9    h113V496.5z M71.5,472.5v-17h49v17H71.5z M152.5,472.5h-17v-32h-79v32h-17V155.013L99.373,87.5H152.5v257h-24v47v0.001l24-0.001    V472.5z M216.5,496.5h-49v-9h49V496.5z M248.5,496.5h-17v-24v-49h17V496.5z M280.5,472.5v24h-17v-73h17V472.5z M344.5,496.5h-49    v-9h49V496.5z M344.5,472.5h-49v-64h-32h-15h-32v64h-49v-81h177V472.5z M472.5,496.5h-113v-9h113V496.5z" fill="#bcbd8b" data-original="#000000" style="" class=""/>
	</g>
</g>
<g xmlns="http://www.w3.org/2000/svg">
	<g>
		<rect x="216.5" y="32" width="15" height="16" fill="#bcbd8b" data-original="#000000" style="" class=""/>
	</g>
</g>
<g xmlns="http://www.w3.org/2000/svg">
	<g>
		<rect x="248.5" y="32" width="15" height="16" fill="#bcbd8b" data-original="#000000" style="" class=""/>
	</g>
</g>
<g xmlns="http://www.w3.org/2000/svg">
	<g>
		<rect x="280.5" y="32" width="15" height="16" fill="#bcbd8b" data-original="#000000" style="" class=""/>
	</g>
</g>
<g xmlns="http://www.w3.org/2000/svg">
	<g>
		<rect x="312.5" y="32" width="15" height="16" fill="#bcbd8b" data-original="#000000" style="" class=""/>
	</g>
</g>
<g xmlns="http://www.w3.org/2000/svg">
	<g>
		<rect x="216.5" y="72" width="15" height="16" fill="#bcbd8b" data-original="#000000" style="" class=""/>
	</g>
</g>
<g xmlns="http://www.w3.org/2000/svg">
	<g>
		<rect x="248.5" y="72" width="15" height="16" fill="#bcbd8b" data-original="#000000" style="" class=""/>
	</g>
</g>
<g xmlns="http://www.w3.org/2000/svg">
	<g>
		<rect x="280.5" y="72" width="15" height="16" fill="#bcbd8b" data-original="#000000" style="" class=""/>
	</g>
</g>
<g xmlns="http://www.w3.org/2000/svg">
	<g>
		<rect x="312.5" y="72" width="15" height="16" fill="#bcbd8b" data-original="#000000" style="" class=""/>
	</g>
</g>
<g xmlns="http://www.w3.org/2000/svg">
	<g>
		<rect x="216.5" y="112" width="15" height="16" fill="#bcbd8b" data-original="#000000" style="" class=""/>
	</g>
</g>
<g xmlns="http://www.w3.org/2000/svg">
	<g>
		<rect x="248.5" y="112" width="15" height="16" fill="#bcbd8b" data-original="#000000" style="" class=""/>
	</g>
</g>
<g xmlns="http://www.w3.org/2000/svg">
	<g>
		<rect x="280.5" y="112" width="15" height="16" fill="#bcbd8b" data-original="#000000" style="" class=""/>
	</g>
</g>
<g xmlns="http://www.w3.org/2000/svg">
	<g>
		<rect x="312.5" y="112" width="15" height="16" fill="#bcbd8b" data-original="#000000" style="" class=""/>
	</g>
</g>
<g xmlns="http://www.w3.org/2000/svg">
	<g>
		<rect x="216.5" y="152" width="15" height="16" fill="#bcbd8b" data-original="#000000" style="" class=""/>
	</g>
</g>
<g xmlns="http://www.w3.org/2000/svg">
	<g>
		<rect x="248.5" y="152" width="15" height="16" fill="#bcbd8b" data-original="#000000" style="" class=""/>
	</g>
</g>
<g xmlns="http://www.w3.org/2000/svg">
	<g>
		<rect x="280.5" y="152" width="15" height="16" fill="#bcbd8b" data-original="#000000" style="" class=""/>
	</g>
</g>
<g xmlns="http://www.w3.org/2000/svg">
	<g>
		<rect x="312.5" y="152" width="15" height="16" fill="#bcbd8b" data-original="#000000" style="" class=""/>
	</g>
</g>
<g xmlns="http://www.w3.org/2000/svg">
	<g>
		<rect x="216.5" y="192" width="15" height="16" fill="#bcbd8b" data-original="#000000" style="" class=""/>
	</g>
</g>
<g xmlns="http://www.w3.org/2000/svg">
	<g>
		<rect x="248.5" y="192" width="15" height="16" fill="#bcbd8b" data-original="#000000" style="" class=""/>
	</g>
</g>
<g xmlns="http://www.w3.org/2000/svg">
	<g>
		<rect x="280.5" y="192" width="15" height="16" fill="#bcbd8b" data-original="#000000" style="" class=""/>
	</g>
</g>
<g xmlns="http://www.w3.org/2000/svg">
	<g>
		<rect x="312.5" y="192" width="15" height="16" fill="#bcbd8b" data-original="#000000" style="" class=""/>
	</g>
</g>
<g xmlns="http://www.w3.org/2000/svg">
	<g>
		<rect x="184.5" y="32" width="15" height="16" fill="#bcbd8b" data-original="#000000" style="" class=""/>
	</g>
</g>
<g xmlns="http://www.w3.org/2000/svg">
	<g>
		<rect x="184.5" y="72" width="15" height="16" fill="#bcbd8b" data-original="#000000" style="" class=""/>
	</g>
</g>
<g xmlns="http://www.w3.org/2000/svg">
	<g>
		<rect x="184.5" y="112" width="15" height="16" fill="#bcbd8b" data-original="#000000" style="" class=""/>
	</g>
</g>
<g xmlns="http://www.w3.org/2000/svg">
	<g>
		<rect x="184.5" y="152" width="15" height="16" fill="#bcbd8b" data-original="#000000" style="" class=""/>
	</g>
</g>
<g xmlns="http://www.w3.org/2000/svg">
	<g>
		<rect x="184.5" y="192" width="15" height="16" fill="#bcbd8b" data-original="#000000" style="" class=""/>
	</g>
</g>
<g xmlns="http://www.w3.org/2000/svg">
	<g>
		<rect x="184.5" y="232" width="15" height="16" fill="#bcbd8b" data-original="#000000" style="" class=""/>
	</g>
</g>
<g xmlns="http://www.w3.org/2000/svg">
	<g>
		<rect x="216.5" y="232" width="15" height="16" fill="#bcbd8b" data-original="#000000" style="" class=""/>
	</g>
</g>
<g xmlns="http://www.w3.org/2000/svg">
	<g>
		<rect x="248.5" y="232" width="15" height="16" fill="#bcbd8b" data-original="#000000" style="" class=""/>
	</g>
</g>
<g xmlns="http://www.w3.org/2000/svg">
	<g>
		<rect x="280.5" y="232" width="15" height="16" fill="#bcbd8b" data-original="#000000" style="" class=""/>
	</g>
</g>
<g xmlns="http://www.w3.org/2000/svg">
	<g>
		<rect x="312.5" y="232" width="15" height="16" fill="#bcbd8b" data-original="#000000" style="" class=""/>
	</g>
</g>
<g xmlns="http://www.w3.org/2000/svg">
	<g>
		<rect x="184.5" y="272" width="15" height="16" fill="#bcbd8b" data-original="#000000" style="" class=""/>
	</g>
</g>
<g xmlns="http://www.w3.org/2000/svg">
	<g>
		<rect x="216.5" y="272" width="15" height="16" fill="#bcbd8b" data-original="#000000" style="" class=""/>
	</g>
</g>
<g xmlns="http://www.w3.org/2000/svg">
	<g>
		<rect x="248.5" y="272" width="15" height="16" fill="#bcbd8b" data-original="#000000" style="" class=""/>
	</g>
</g>
<g xmlns="http://www.w3.org/2000/svg">
	<g>
		<rect x="280.5" y="272" width="15" height="16" fill="#bcbd8b" data-original="#000000" style="" class=""/>
	</g>
</g>
<g xmlns="http://www.w3.org/2000/svg">
	<g>
		<rect x="312.5" y="272" width="15" height="16" fill="#bcbd8b" data-original="#000000" style="" class=""/>
	</g>
</g>
<g xmlns="http://www.w3.org/2000/svg">
	<g>
		<rect x="184.5" y="312" width="15" height="16" fill="#bcbd8b" data-original="#000000" style="" class=""/>
	</g>
</g>
<g xmlns="http://www.w3.org/2000/svg">
	<g>
		<rect x="216.5" y="312" width="15" height="16" fill="#bcbd8b" data-original="#000000" style="" class=""/>
	</g>
</g>
<g xmlns="http://www.w3.org/2000/svg">
	<g>
		<rect x="248.5" y="312" width="15" height="16" fill="#bcbd8b" data-original="#000000" style="" class=""/>
	</g>
</g>
<g xmlns="http://www.w3.org/2000/svg">
	<g>
		<rect x="280.5" y="312" width="15" height="16" fill="#bcbd8b" data-original="#000000" style="" class=""/>
	</g>
</g>
<g xmlns="http://www.w3.org/2000/svg">
	<g>
		<rect x="312.5" y="312" width="15" height="16" fill="#bcbd8b" data-original="#000000" style="" class=""/>
	</g>
</g>
<g xmlns="http://www.w3.org/2000/svg">
	<g>
		<rect x="184.5" y="408" width="15" height="48" fill="#bcbd8b" data-original="#000000" style="" class=""/>
	</g>
</g>
<g xmlns="http://www.w3.org/2000/svg">
	<g>
		<rect x="312.5" y="408" width="15" height="48" fill="#bcbd8b" data-original="#000000" style="" class=""/>
	</g>
</g>
<g xmlns="http://www.w3.org/2000/svg">
	<g>
		<rect x="56.5" y="168" width="15" height="16" fill="#bcbd8b" data-original="#000000" style="" class=""/>
	</g>
</g>
<g xmlns="http://www.w3.org/2000/svg">
	<g>
		<rect x="56.5" y="208" width="15" height="16" fill="#bcbd8b" data-original="#000000" style="" class=""/>
	</g>
</g>
<g xmlns="http://www.w3.org/2000/svg">
	<g>
		<rect x="56.5" y="248" width="15" height="16" fill="#bcbd8b" data-original="#000000" style="" class=""/>
	</g>
</g>
<g xmlns="http://www.w3.org/2000/svg">
	<g>
		<rect x="56.5" y="288" width="15" height="16" fill="#bcbd8b" data-original="#000000" style="" class=""/>
	</g>
</g>
<g xmlns="http://www.w3.org/2000/svg">
	<g>
		<rect x="56.5" y="328" width="15" height="16" fill="#bcbd8b" data-original="#000000" style="" class=""/>
	</g>
</g>
<g xmlns="http://www.w3.org/2000/svg">
	<g>
		<rect x="56.5" y="368" width="15" height="16" fill="#bcbd8b" data-original="#000000" style="" class=""/>
	</g>
</g>
<g xmlns="http://www.w3.org/2000/svg">
	<g>
		<rect x="56.5" y="408" width="15" height="16" fill="#bcbd8b" data-original="#000000" style="" class=""/>
	</g>
</g>
<g xmlns="http://www.w3.org/2000/svg">
	<g>
		<rect x="88.5" y="128" width="15" height="16" fill="#bcbd8b" data-original="#000000" style="" class=""/>
	</g>
</g>
<g xmlns="http://www.w3.org/2000/svg">
	<g>
		<rect x="88.5" y="168" width="15" height="16" fill="#bcbd8b" data-original="#000000" style="" class=""/>
	</g>
</g>
<g xmlns="http://www.w3.org/2000/svg">
	<g>
		<rect x="88.5" y="208" width="15" height="16" fill="#bcbd8b" data-original="#000000" style="" class=""/>
	</g>
</g>
<g xmlns="http://www.w3.org/2000/svg">
	<g>
		<rect x="88.5" y="248" width="15" height="16" fill="#bcbd8b" data-original="#000000" style="" class=""/>
	</g>
</g>
<g xmlns="http://www.w3.org/2000/svg">
	<g>
		<rect x="88.5" y="288" width="15" height="16" fill="#bcbd8b" data-original="#000000" style="" class=""/>
	</g>
</g>
<g xmlns="http://www.w3.org/2000/svg">
	<g>
		<rect x="88.5" y="328" width="15" height="16" fill="#bcbd8b" data-original="#000000" style="" class=""/>
	</g>
</g>
<g xmlns="http://www.w3.org/2000/svg">
	<g>
		<rect x="88.5" y="368" width="15" height="16" fill="#bcbd8b" data-original="#000000" style="" class=""/>
	</g>
</g>
<g xmlns="http://www.w3.org/2000/svg">
	<g>
		<rect x="88.5" y="408" width="15" height="16" fill="#bcbd8b" data-original="#000000" style="" class=""/>
	</g>
</g>
<g xmlns="http://www.w3.org/2000/svg">
	<g>
		<rect x="120.5" y="408" width="15" height="16" fill="#bcbd8b" data-original="#000000" style="" class=""/>
	</g>
</g>
<g xmlns="http://www.w3.org/2000/svg">
	<g>
		<rect x="120.5" y="104" width="15" height="16" fill="#bcbd8b" data-original="#000000" style="" class=""/>
	</g>
</g>
<g xmlns="http://www.w3.org/2000/svg">
	<g>
		<rect x="120.5" y="144" width="15" height="16" fill="#bcbd8b" data-original="#000000" style="" class=""/>
	</g>
</g>
<g xmlns="http://www.w3.org/2000/svg">
	<g>
		<rect x="120.5" y="184" width="15" height="16" fill="#bcbd8b" data-original="#000000" style="" class=""/>
	</g>
</g>
<g xmlns="http://www.w3.org/2000/svg">
	<g>
		<rect x="120.5" y="224" width="15" height="16" fill="#bcbd8b" data-original="#000000" style="" class=""/>
	</g>
</g>
<g xmlns="http://www.w3.org/2000/svg">
	<g>
		<rect x="120.5" y="264" width="15" height="16" fill="#bcbd8b" data-original="#000000" style="" class=""/>
	</g>
</g>
<g xmlns="http://www.w3.org/2000/svg">
	<g>
		<rect x="120.5" y="304" width="15" height="16" fill="#bcbd8b" data-original="#000000" style="" class=""/>
	</g>
</g>
<g xmlns="http://www.w3.org/2000/svg">
	<g>
		<rect x="440.5" y="168" width="15" height="16" fill="#bcbd8b" data-original="#000000" style="" class=""/>
	</g>
</g>
<g xmlns="http://www.w3.org/2000/svg">
	<g>
		<rect x="440.5" y="208" width="15" height="16" fill="#bcbd8b" data-original="#000000" style="" class=""/>
	</g>
</g>
<g xmlns="http://www.w3.org/2000/svg">
	<g>
		<rect x="440.5" y="248" width="15" height="16" fill="#bcbd8b" data-original="#000000" style="" class=""/>
	</g>
</g>
<g xmlns="http://www.w3.org/2000/svg">
	<g>
		<rect x="440.5" y="288" width="15" height="16" fill="#bcbd8b" data-original="#000000" style="" class=""/>
	</g>
</g>
<g xmlns="http://www.w3.org/2000/svg">
	<g>
		<rect x="440.5" y="328" width="15" height="16" fill="#bcbd8b" data-original="#000000" style="" class=""/>
	</g>
</g>
<g xmlns="http://www.w3.org/2000/svg">
	<g>
		<rect x="440.5" y="368" width="15" height="16" fill="#bcbd8b" data-original="#000000" style="" class=""/>
	</g>
</g>
<g xmlns="http://www.w3.org/2000/svg">
	<g>
		<rect x="440.5" y="408" width="15" height="16" fill="#bcbd8b" data-original="#000000" style="" class=""/>
	</g>
</g>
<g xmlns="http://www.w3.org/2000/svg">
	<g>
		<rect x="408.5" y="128" width="15" height="16" fill="#bcbd8b" data-original="#000000" style="" class=""/>
	</g>
</g>
<g xmlns="http://www.w3.org/2000/svg">
	<g>
		<rect x="408.5" y="168" width="15" height="16" fill="#bcbd8b" data-original="#000000" style="" class=""/>
	</g>
</g>
<g xmlns="http://www.w3.org/2000/svg">
	<g>
		<rect x="408.5" y="208" width="15" height="16" fill="#bcbd8b" data-original="#000000" style="" class=""/>
	</g>
</g>
<g xmlns="http://www.w3.org/2000/svg">
	<g>
		<rect x="408.5" y="248" width="15" height="16" fill="#bcbd8b" data-original="#000000" style="" class=""/>
	</g>
</g>
<g xmlns="http://www.w3.org/2000/svg">
	<g>
		<rect x="408.5" y="288" width="15" height="16" fill="#bcbd8b" data-original="#000000" style="" class=""/>
	</g>
</g>
<g xmlns="http://www.w3.org/2000/svg">
	<g>
		<rect x="408.5" y="328" width="15" height="16" fill="#bcbd8b" data-original="#000000" style="" class=""/>
	</g>
</g>
<g xmlns="http://www.w3.org/2000/svg">
	<g>
		<rect x="408.5" y="368" width="15" height="16" fill="#bcbd8b" data-original="#000000" style="" class=""/>
	</g>
</g>
<g xmlns="http://www.w3.org/2000/svg">
	<g>
		<rect x="408.5" y="408" width="15" height="16" fill="#bcbd8b" data-original="#000000" style="" class=""/>
	</g>
</g>
<g xmlns="http://www.w3.org/2000/svg">
	<g>
		<rect x="376.5" y="408" width="15" height="16" fill="#bcbd8b" data-original="#000000" style="" class=""/>
	</g>
</g>
<g xmlns="http://www.w3.org/2000/svg">
	<g>
		<rect x="376.5" y="104" width="15" height="16" fill="#bcbd8b" data-original="#000000" style="" class=""/>
	</g>
</g>
<g xmlns="http://www.w3.org/2000/svg">
	<g>
		<rect x="376.5" y="144" width="15" height="16" fill="#bcbd8b" data-original="#000000" style="" class=""/>
	</g>
</g>
<g xmlns="http://www.w3.org/2000/svg">
	<g>
		<rect x="376.5" y="184" width="15" height="16" fill="#bcbd8b" data-original="#000000" style="" class=""/>
	</g>
</g>
<g xmlns="http://www.w3.org/2000/svg">
	<g>
		<rect x="376.5" y="224" width="15" height="16" fill="#bcbd8b" data-original="#000000" style="" class=""/>
	</g>
</g>
<g xmlns="http://www.w3.org/2000/svg">
	<g>
		<rect x="376.5" y="264" width="15" height="16" fill="#bcbd8b" data-original="#000000" style="" class=""/>
	</g>
</g>
<g xmlns="http://www.w3.org/2000/svg">
	<g>
		<rect x="376.5" y="304" width="15" height="16" fill="#bcbd8b" data-original="#000000" style="" class=""/>
	</g>
</g>
<g xmlns="http://www.w3.org/2000/svg">
</g>
<g xmlns="http://www.w3.org/2000/svg">
</g>
<g xmlns="http://www.w3.org/2000/svg">
</g>
<g xmlns="http://www.w3.org/2000/svg">
</g>
<g xmlns="http://www.w3.org/2000/svg">
</g>
<g xmlns="http://www.w3.org/2000/svg">
</g>
<g xmlns="http://www.w3.org/2000/svg">
</g>
<g xmlns="http://www.w3.org/2000/svg">
</g>
<g xmlns="http://www.w3.org/2000/svg">
</g>
<g xmlns="http://www.w3.org/2000/svg">
</g>
<g xmlns="http://www.w3.org/2000/svg">
</g>
<g xmlns="http://www.w3.org/2000/svg">
</g>
<g xmlns="http://www.w3.org/2000/svg">
</g>
<g xmlns="http://www.w3.org/2000/svg">
</g>
<g xmlns="http://www.w3.org/2000/svg">
</g>
</g></svg>
